<?xml version="1.0" encoding="UTF-8"?>
<svg xmlns="http://www.w3.org/2000/svg" xmlns:xlink="http://www.w3.org/1999/xlink" viewBox="0 0 250 250" width="250px" height="250px">
<g id="surface59110094">
<path style=" stroke:none;fill-rule:nonzero;fill:rgb(17.254902%,71.372551%,49.019608%);fill-opacity:1;" d="M 125 20 C 127.832031 20 130.488281 21.09375 132.480469 23.105469 L 226.894531 117.519531 C 231.035156 121.640625 231.035156 128.359375 226.894531 132.480469 L 132.480469 226.894531 C 130.488281 228.90625 127.832031 230 125 230 C 122.167969 230 119.511719 228.90625 117.519531 226.894531 L 23.105469 132.480469 C 18.964844 128.359375 18.964844 121.640625 23.105469 117.519531 L 84.707031 55.917969 L 96.074219 67.285156 C 93.339844 77.441406 96.09375 88.515625 103.789062 96.210938 C 105.625 98.046875 107.714844 99.628906 110 100.9375 L 110 149.082031 C 100.898438 154.335938 95 164.121094 95 175 C 95 191.542969 108.457031 205 125 205 C 141.542969 205 155 191.542969 155 175 C 155 164.121094 149.101562 154.335938 140 149.082031 L 140 111.210938 L 146.074219 117.285156 C 143.339844 127.441406 146.09375 138.515625 153.789062 146.210938 C 159.453125 151.875 166.992188 155 175 155 C 183.007812 155 190.546875 151.875 196.210938 146.210938 C 207.910156 134.511719 207.910156 115.488281 196.210938 103.789062 C 190.566406 98.144531 183.085938 95.039062 175.097656 95.039062 C 172.460938 95.039062 169.824219 95.390625 167.285156 96.074219 L 153.925781 82.714844 C 156.660156 72.558594 153.90625 61.484375 146.210938 53.789062 C 140.566406 48.144531 133.085938 45.039062 125.097656 45.039062 C 122.460938 45.039062 119.824219 45.390625 117.285156 46.074219 L 105.917969 34.707031 L 117.519531 23.105469 C 119.511719 21.09375 122.167969 20 125 20 M 125 10 C 119.726562 10 114.453125 12.011719 110.449219 16.035156 L 91.777344 34.707031 L 114.882812 57.8125 C 118.027344 55.976562 121.5625 55.039062 125.097656 55.039062 C 130.175781 55.039062 135.253906 56.972656 139.140625 60.859375 C 145.722656 67.441406 146.679688 77.441406 142.167969 85.097656 L 164.882812 107.8125 C 168.027344 105.976562 171.5625 105.039062 175.097656 105.039062 C 180.175781 105.039062 185.253906 106.972656 189.140625 110.859375 C 196.953125 118.671875 196.953125 131.328125 189.140625 139.140625 C 185.234375 143.046875 180.117188 145 175 145 C 169.882812 145 164.765625 143.046875 160.859375 139.140625 C 154.277344 132.558594 153.320312 122.558594 157.832031 114.882812 L 135.117188 92.167969 C 133.496094 93.125 131.777344 93.828125 130 94.277344 L 130 155.703125 C 138.613281 157.929688 145 165.683594 145 175 C 145 186.054688 136.054688 195 125 195 C 113.964844 195 105 186.054688 105 175 C 105 165.683594 111.386719 157.929688 120 155.703125 L 120 94.277344 C 116.660156 93.417969 113.476562 91.757812 110.859375 89.140625 C 104.277344 82.558594 103.320312 72.558594 107.832031 64.902344 L 84.707031 41.777344 L 16.035156 110.449219 C 7.988281 118.476562 7.988281 131.523438 16.035156 139.550781 L 110.449219 233.964844 C 114.453125 237.988281 119.726562 240 125 240 C 130.273438 240 135.546875 237.988281 139.550781 233.964844 L 233.964844 139.550781 C 242.011719 131.523438 242.011719 118.476562 233.964844 110.449219 L 139.550781 16.035156 C 135.546875 12.011719 130.273438 10 125 10 Z M 125 10 "/>
</g>
</svg>
