<?xml version="1.0" encoding="UTF-8"?>
<svg xmlns="http://www.w3.org/2000/svg" xmlns:xlink="http://www.w3.org/1999/xlink" viewBox="0 0 250 250" width="250px" height="250px">
<g id="surface59104695">
<path style=" stroke:none;fill-rule:nonzero;fill:rgb(17.254902%,71.372551%,49.019608%);fill-opacity:1;" d="M 40.769531 31.25 L 41.503906 39.796875 L 55.175781 194.335938 L 55.664062 199.707031 L 60.792969 201.171875 L 122.800781 218.503906 L 124.753906 218.996094 L 126.953125 218.503906 L 188.964844 201.417969 L 194.089844 199.953125 L 194.578125 194.582031 L 208.496094 39.796875 L 209.230469 31.496094 L 200.683594 31.496094 L 49.316406 31.25 Z M 57.859375 46.875 L 192.136719 47.121094 L 179.441406 187.746094 L 125 202.878906 L 70.3125 187.746094 Z M 76.660156 70.3125 L 81.785156 128.660156 L 148.683594 128.660156 L 146.484375 153.808594 L 125 159.667969 L 124.753906 159.667969 L 103.269531 153.808594 L 102.050781 137.695312 L 82.519531 137.695312 L 85.207031 168.699219 L 124.757812 179.6875 L 125 179.6875 L 164.550781 168.699219 L 169.921875 109.375 L 99.367188 109.375 L 97.65625 89.597656 L 171.632812 89.597656 L 173.339844 70.3125 Z M 76.660156 70.3125 "/>
</g>
</svg>
