<?xml version="1.0" encoding="UTF-8"?>
<svg xmlns="http://www.w3.org/2000/svg" xmlns:xlink="http://www.w3.org/1999/xlink" viewBox="0 0 250 250" width="250px" height="250px">
<g id="surface59108436">
<path style=" stroke:none;fill-rule:nonzero;fill:rgb(17.254902%,71.372551%,49.019608%);fill-opacity:1;" d="M 114.257812 29.015625 C 103.117188 29.015625 91.359375 31.097656 80.246094 35.050781 C 66.933594 39.777344 41.769531 50.371094 22.765625 68.144531 C 3.46875 86.195312 -1.292969 103.558594 0.683594 113.800781 C 4.386719 132.988281 22.835938 146.125 36.855469 155.792969 C 26.617188 162.0625 15.488281 170.695312 11.035156 180.546875 C 6.832031 189.835938 6.605469 199.40625 10.378906 207.488281 C 13.199219 213.523438 18.015625 218.003906 23.261719 219.464844 C 26.890625 220.472656 30.644531 220.988281 34.414062 220.988281 C 49.304688 220.988281 63.992188 212.859375 72.761719 199.785156 C 74.078125 197.824219 75.210938 195.785156 76.179688 193.703125 C 76.714844 194.335938 77.273438 194.9375 77.839844 195.480469 C 82.625 200.011719 88.328125 200.011719 90.203125 200.011719 C 95.984375 200.011719 100.054688 197.503906 102.988281 194.394531 C 105.4375 196.023438 108.320312 196.894531 111.425781 196.894531 C 111.800781 196.894531 112.1875 196.890625 112.558594 196.847656 C 118.773438 196.085938 125.476562 190.019531 125.476562 190.019531 C 125.738281 190.246094 126 190.453125 126.277344 190.664062 C 128.917969 192.652344 132.242188 193.625 136.425781 193.625 C 137.121094 193.625 137.839844 193.605469 138.5625 193.554688 C 143.679688 193.210938 147.535156 191.988281 149.960938 190.96875 C 152.402344 190.078125 155.933594 188.503906 159.460938 185.910156 C 160.316406 185.277344 161.132812 184.617188 161.894531 183.917969 C 163.449219 184.859375 165.203125 185.542969 167.109375 185.925781 C 168.039062 186.117188 169.007812 186.210938 170.007812 186.210938 C 172.640625 186.210938 175.484375 185.566406 178.699219 184.25 C 181.3125 183.347656 185.078125 181.734375 188.835938 178.976562 C 197.546875 172.570312 201.785156 164.957031 201.425781 156.367188 C 201.414062 156.101562 201.398438 155.835938 201.375 155.566406 C 202.660156 155.425781 203.992188 155.363281 205.359375 155.363281 C 207.054688 155.363281 208.84375 155.472656 210.664062 155.683594 C 222.589844 157.078125 225.152344 162.707031 225.105469 164.570312 C 225.03125 165.058594 224.183594 165.847656 223.386719 166.339844 C 218.34375 169.457031 216.242188 173.507812 217.136719 178.378906 C 218.09375 183.648438 222.519531 187.34375 227.898438 187.34375 C 228.925781 187.34375 229.820312 187.214844 230.566406 187.089844 C 236.960938 186.011719 249.148438 178.074219 249.707031 163.808594 C 250.035156 155.527344 246.644531 147.054688 240.410156 140.566406 C 232.574219 132.417969 221.085938 127.929688 208.054688 127.929688 L 207.753906 127.929688 C 202.375 127.960938 197.148438 128.695312 192.128906 130.128906 L 191.972656 128.996094 C 191.667969 126.847656 191.550781 126.042969 191.796875 124.179688 C 192.015625 122.503906 193.039062 119.476562 193.535156 118.019531 C 194.230469 115.976562 194.734375 114.503906 194.558594 112.324219 C 194.21875 108.070312 190.683594 100.839844 179.597656 100.761719 L 179.285156 100.761719 C 169.4375 100.761719 163.351562 103.621094 161.199219 109.269531 C 160.929688 109.972656 160.613281 110.902344 160.28125 111.972656 C 157.984375 109.550781 154.289062 107.648438 148.621094 107.609375 L 148.300781 107.609375 C 147.125 107.609375 146.007812 107.65625 144.941406 107.734375 C 159.152344 94.570312 168.207031 75.664062 163.59375 57.550781 C 159.109375 39.949219 140.203125 29.015625 114.257812 29.015625 Z M 114.246094 38.964844 C 134.199219 38.964844 150.5 46.425781 153.964844 60.019531 C 159.035156 79.898438 141.769531 103.675781 119.667969 112.226562 C 108.183594 116.671875 97.851562 118.113281 89.902344 118.113281 C 84.199219 118.113281 79.714844 117.367188 76.914062 116.445312 C 69.292969 113.945312 64.820312 108.929688 63.730469 106.09375 C 63.304688 104.984375 62.566406 103.117188 63.730469 102.472656 C 63.929688 102.359375 64.101562 102.285156 64.277344 102.285156 C 64.738281 102.285156 65.273438 102.757812 66.648438 104.277344 C 68.246094 106.039062 74.0625 110.390625 84.832031 110.390625 C 86.347656 110.390625 87.972656 110.3125 89.6875 110.117188 C 126.164062 106.027344 148.132812 77.683594 141.191406 62.433594 C 138.640625 56.832031 129.695312 52.851562 116.6875 52.851562 C 104.90625 52.851562 89.785156 56.128906 73.085938 64.453125 C 30.207031 85.816406 27.882812 103.425781 27.519531 110.117188 C 26.515625 128.515625 50.226562 138.203125 63.054688 151.894531 C 63.226562 152.074219 63.390625 152.25 63.554688 152.433594 C 65.960938 151.105469 68.492188 149.714844 70.976562 148.351562 C 77.445312 144.792969 83.535156 141.460938 86.386719 139.914062 C 90.902344 133.351562 100.074219 126.113281 106.6875 126.113281 C 117.269531 126.113281 113.621094 141.308594 113.621094 141.308594 C 113.621094 141.308594 113.839844 140.601562 114.128906 140.597656 C 114.359375 140.589844 115.105469 139.414062 116.921875 139.414062 C 117.46875 139.414062 118.101562 139.519531 118.855469 139.796875 C 122.21875 141.023438 121.453125 143.382812 121.472656 143.625 C 121.515625 144.089844 117.511719 157.601562 115.839844 166.261719 C 115.042969 170.390625 115.507812 173.398438 115.742188 173.398438 C 116.070312 173.398438 116.738281 172.339844 117.363281 171.210938 L 117.351562 171.183594 C 117.351562 171.183594 117.820312 170.332031 118.601562 168.800781 C 118.703125 168.59375 118.757812 168.46875 118.757812 168.46875 L 118.769531 168.476562 C 119.691406 166.667969 120.984375 164.019531 122.480469 160.722656 C 125.414062 154.253906 136.617188 129.289062 137.566406 126.523438 C 138.519531 123.757812 139.015625 120.898438 139.480469 119.675781 C 139.941406 118.476562 143.765625 117.566406 148.289062 117.566406 L 148.535156 117.566406 C 153.164062 117.601562 153.628906 119.570312 153.660156 119.980469 C 153.695312 120.390625 151.457031 125.867188 150.949219 129.734375 C 150.4375 133.605469 150.925781 135.546875 151.347656 138.796875 C 151.628906 140.929688 152.957031 143.625 154.523438 146.679688 C 159.304688 138.851562 167.738281 123.871094 168.554688 119.675781 C 169.109375 116.8125 170.003906 114.0625 170.46875 112.839844 C 170.929688 111.640625 174.757812 110.722656 179.277344 110.722656 L 179.511719 110.722656 C 184.140625 110.757812 184.613281 112.734375 184.648438 113.144531 C 184.683594 113.554688 182.445312 119.03125 181.933594 122.898438 C 181.421875 126.769531 181.914062 128.703125 182.335938 131.953125 C 182.695312 134.734375 184.851562 138.484375 186.984375 142.734375 C 192.808594 139.863281 199.757812 137.929688 207.785156 137.890625 L 208.039062 137.890625 C 228.632812 137.890625 240.246094 151.261719 239.765625 163.4375 C 239.40625 173.046875 230.566406 177.015625 228.925781 177.292969 C 228.527344 177.363281 228.179688 177.410156 227.902344 177.410156 C 227.34375 177.410156 227.027344 177.210938 226.914062 176.589844 C 226.792969 175.945312 227.222656 175.648438 228.625 174.785156 C 230.023438 173.921875 234.207031 171.050781 234.953125 165.828125 C 235.703125 160.609375 231.78125 148.144531 211.816406 145.808594 C 209.546875 145.546875 207.402344 145.429688 205.363281 145.429688 C 199.046875 145.429688 193.824219 146.609375 189.5625 148.386719 C 190.609375 151.105469 191.382812 153.925781 191.503906 156.777344 C 191.765625 163.039062 187.4375 167.660156 182.949219 170.964844 C 180.335938 172.890625 177.523438 174.175781 175.195312 174.949219 C 173.636719 175.609375 171.648438 176.277344 170.011719 176.277344 C 169.679688 176.277344 169.367188 176.25 169.074219 176.191406 C 165.175781 175.40625 163.101562 171.949219 165.753906 164.324219 C 167.1875 160.199219 171.3125 153.914062 177.96875 148.503906 C 176.449219 145.378906 174.757812 142.199219 173.898438 139.277344 C 172.203125 133.511719 171.679688 130.027344 171.679688 130.027344 C 171.679688 130.027344 166.179688 141.402344 159.101562 151.757812 C 158.691406 152.359375 158.285156 152.941406 157.882812 153.523438 C 159.269531 156.75 160.371094 160.171875 160.519531 163.621094 C 160.777344 169.878906 158.0625 174.605469 153.574219 177.910156 C 151.140625 179.699219 148.546875 180.9375 146.320312 181.726562 C 144.886719 182.347656 141.996094 183.363281 137.882812 183.640625 C 137.386719 183.675781 136.894531 183.699219 136.417969 183.699219 C 134.722656 183.699219 133.195312 183.460938 132.246094 182.742188 C 130.582031 181.492188 130.378906 179.933594 131.242188 177.8125 C 131.96875 176.011719 137.421875 169.78125 142.003906 164.324219 C 143.261719 162.820312 144.472656 161.289062 145.546875 159.863281 C 145.53125 159.828125 145.527344 159.804688 145.527344 159.804688 C 145.527344 159.804688 146.355469 158.734375 147.707031 156.863281 C 146.035156 153.269531 143.910156 149.511719 142.910156 146.121094 C 141.214844 140.359375 140.703125 136.863281 140.703125 136.863281 C 140.703125 136.863281 135.136719 151.132812 129.335938 162.519531 C 124.847656 171.335938 121.847656 176.679688 120.5 179.023438 C 120.488281 179.082031 120.480469 179.109375 120.480469 179.109375 C 120.480469 179.109375 120.28125 179.457031 119.933594 179.988281 C 119.761719 180.28125 119.679688 180.429688 119.679688 180.429688 C 119.679688 180.429688 119.671875 180.410156 119.667969 180.390625 C 118.164062 182.609375 114.78125 186.960938 111.425781 186.960938 C 102.207031 186.960938 105.597656 168.25 105.597656 168.25 C 105.597656 168.25 102.902344 175.183594 99.863281 181.132812 C 97.386719 185.984375 95.136719 190.085938 90.207031 190.085938 C 88.78125 190.085938 86.539062 190.042969 84.667969 188.269531 C 80.433594 184.25 77.195312 174.042969 77.832031 166.140625 C 78.371094 159.417969 79.40625 154.765625 80.820312 150.878906 C 78.285156 152.257812 75.367188 153.890625 72.394531 155.632812 C 70.867188 156.53125 69.332031 157.441406 67.824219 158.328125 C 67.871094 158.421875 67.921875 158.511719 67.96875 158.601562 C 71.757812 165.921875 72.757812 181.949219 64.503906 194.257812 C 57.808594 204.242188 46.449219 211.0625 34.40625 211.0625 C 31.59375 211.0625 28.746094 210.691406 25.917969 209.902344 C 21.089844 208.558594 13.78125 198.570312 20.078125 184.648438 C 25.628906 172.378906 47.816406 160.761719 53.664062 157.871094 C 54.152344 157.601562 54.699219 157.308594 55.273438 156.992188 C 43.617188 146.796875 14.5 133.046875 10.421875 111.921875 C 9.269531 105.980469 12.054688 91.746094 29.53125 75.398438 C 44.226562 61.65625 64.675781 51.132812 83.554688 44.421875 C 93.949219 40.730469 104.527344 38.964844 114.25 38.964844 Z M 116.707031 62.761719 C 127.359375 62.761719 131.703125 65.855469 132.207031 66.621094 C 132.90625 68.171875 132.75 71.632812 130.046875 76.394531 C 124.265625 86.597656 109.199219 97.925781 88.59375 100.234375 C 87.308594 100.378906 86.054688 100.449219 84.851562 100.449219 C 77.148438 100.449219 73.945312 97.511719 73.914062 97.480469 C 72.125 95.5 69.257812 92.339844 64.296875 92.332031 C 62.445312 92.332031 60.644531 92.820312 58.933594 93.769531 C 57.480469 94.574219 50.429688 99.121094 54.453125 109.589844 C 56.636719 115.269531 63.464844 122.480469 73.828125 125.878906 C 76.597656 126.789062 79.992188 127.421875 83.71875 127.761719 C 82.210938 129.261719 80.871094 130.777344 79.734375 132.214844 C 76.511719 133.976562 71.484375 136.730469 66.210938 139.628906 L 65.214844 140.164062 C 61.988281 137.324219 58.550781 134.691406 55.183594 132.097656 C 44.226562 123.667969 37.070312 117.621094 37.449219 110.644531 C 38.257812 95.90625 59.6875 82.210938 77.527344 73.320312 C 91.1875 66.515625 105.105469 62.761719 116.707031 62.761719 Z M 129.433594 118.691406 C 129.347656 119.015625 129.273438 119.351562 129.1875 119.699219 C 128.90625 120.847656 128.582031 122.140625 128.191406 123.269531 C 127.863281 124.171875 126.476562 127.375 124.648438 131.53125 C 124.367188 131.375 124.085938 131.222656 123.789062 131.082031 C 123.289062 128.175781 122.238281 125.183594 120.265625 122.589844 C 121.253906 122.238281 122.246094 121.863281 123.261719 121.472656 C 125.339844 120.667969 127.402344 119.742188 129.433594 118.691406 Z M 106.464844 135.089844 C 104.746094 135.089844 101.957031 136.585938 99.355469 139.492188 C 97.117188 142.003906 93.296875 148.46875 91.511719 153.878906 C 87.964844 164.628906 89.492188 175.550781 92.011719 176.210938 C 92.085938 176.230469 92.171875 176.238281 92.246094 176.238281 C 95.195312 176.238281 99.832031 162.460938 102.070312 156.992188 C 103.515625 153.472656 109.128906 137.855469 107.902344 135.769531 C 107.628906 135.316406 107.128906 135.089844 106.464844 135.089844 Z M 181.152344 152.792969 C 177.421875 156.089844 175.277344 159.542969 174.335938 161.589844 C 171.941406 166.8125 171.824219 168.484375 172.546875 169.003906 C 176.035156 167.753906 181.785156 164.734375 181.835938 156.660156 C 181.847656 155.449219 181.585938 154.148438 181.152344 152.792969 Z M 60.742188 161.691406 C 60.382812 161.898438 60.046875 162.105469 59.71875 162.304688 L 59.71875 162.316406 C 59.71875 162.316406 59.5625 162.402344 59.277344 162.570312 C 57.558594 163.597656 56.136719 164.449219 55.175781 165.03125 C 50.941406 167.675781 44.554688 171.976562 39.609375 176.640625 C 31.496094 184.296875 29.792969 194.921875 34.074219 197.402344 C 34.988281 197.933594 36.191406 198.195312 37.578125 198.195312 C 42.179688 198.195312 48.800781 195.300781 53.886719 189.757812 C 60.828125 182.179688 63.691406 172.585938 60.742188 161.691406 Z M 150.839844 162.941406 C 149.398438 164.828125 148.074219 166.507812 146.933594 167.929688 C 144.972656 170.371094 139.988281 175.722656 139.988281 175.722656 C 139.988281 175.722656 139.285156 176.390625 139.589844 176.574219 C 139.691406 176.632812 139.816406 176.660156 139.960938 176.660156 C 140.4375 176.660156 141.132812 176.375 141.882812 175.988281 C 144.648438 174.246094 150.84375 169.917969 150.859375 163.496094 C 150.859375 163.3125 150.855469 163.128906 150.839844 162.941406 Z M 150.839844 162.941406 "/>
</g>
</svg>
